<svg class="absolute full" width="200" height="200" xmlns="http://www.w3.org/2000/svg" viewBox="0 0 200 200" fill="none">
  <path d="M20.1297 29C20.1297 29 48.8597 33.18 80.2697 76.78C111.68 120.38 114.82 135.85 171.63 142.85L171.13 152.6L152.81 174.66C152.81 174.66 146.01 150.66 119 137.45C91.9897 124.24 17.1797 116.6 20.1297 29Z" fill="#AFCDD7"></path>
  <path d="M20.1299 29C20.1299 29 35.3099 62.4499 70.2199 96.9199C95.8099 122.18 129.22 140.41 171.22 152.62L181.3 140.47C181.3 140.47 132 142.68 102.72 90.8099C69.0699 31.3399 20.1299 29 20.1299 29Z" fill="#829678"></path>
</svg>