<svg class="absolute full" width="200" height="200" xmlns="http://www.w3.org/2000/svg" viewBox="0 0 200 200" fill="none">
  <path d="M152.505 188.416C148.728 185.794 146.945 182.646 145.214 180.653C138.133 172.471 138.447 163.659 124.338 149.549C107.081 132.24 98.5309 124.057 103.619 111.783C108.707 99.5091 103.566 89.5431 79.1235 85.0846C54.6805 80.6261 54.8379 63.1069 58.7718 54.9243C62.7058 46.7417 48.0191 37.6674 28.0871 34.9923C8.15506 32.3172 11.9841 6.98263 46.4979 8.03168C85.6276 9.23809 111.959 46.3221 111.959 46.3221C111.959 46.3221 109.651 28.5931 120.666 25.0788C141.857 18.3124 166.929 88.3891 155.914 128.83C151.088 146.507 151.875 163.291 155.285 172.838C159.638 185.112 166.3 188.731 164.779 192.298C162.995 196.232 157.54 191.878 152.505 188.416Z" fill="#79BE70"></path>
  <path d="M35.4583 33.3061C30.6851 32.0996 31.5768 24.7563 43.4835 25.4382C64.622 26.5921 120.274 41.3837 133.02 86.3356C139.052 107.684 141.15 126.357 144.245 142.565C147.654 160.504 152.113 175.295 158.512 185.786C158.512 185.786 155.994 193.759 154.631 188.041C152.165 177.708 141.308 169.735 134.122 125.675C128.299 90.1647 119.75 68.187 92.789 49.7237C65.8284 31.3128 35.4583 33.3061 35.4583 33.3061Z" fill="#9BCE94"></path>
</svg>