<svg class="absolute full" width="200" height="200" xmlns="http://www.w3.org/2000/svg" viewBox="0 0 200 200" fill="none">
  <path d="M13.5172 182.228C14.9268 177.867 17.4441 175.289 18.8538 173.086C24.6298 163.943 33.1336 161.795 42.5894 144.351C54.1872 122.975 59.5421 112.507 72.696 113.842C85.85 115.177 93.8778 107.442 91.2049 82.9129C88.532 58.3835 105.247 53.5105 114.172 54.9458C123.096 56.3812 127.545 39.7876 124.424 20.0214C121.302 0.25528 146.567 -3.32856 155.418 29.8862C165.487 67.5169 137.578 103.154 137.578 103.154C137.578 103.154 153.853 95.9227 160.325 105.376C172.81 123.661 113.128 167.49 71.3962 168.505C53.0888 168.944 37.3535 174.503 29.2158 180.391C18.7439 188.015 17.2061 195.402 13.3616 194.964C9.0593 194.497 11.6315 188.061 13.5172 182.228Z" fill="#EBB4BB"></path>
  <path d="M124.396 20.0028C124.213 15.1115 131.454 13.8956 134.209 25.406C139.115 45.8944 140.9 103.117 101.649 128.077C83.0212 139.962 65.7939 147.212 51.2211 154.791C35.1014 163.166 22.2221 171.604 14.0479 180.719C14.0479 180.719 17.2059 172.18 28.767 161.767C35.7971 155.431 46.9921 148.053 64.4117 140.328C97.1912 125.846 115.151 110.249 125.064 79.3012C134.978 48.3537 124.396 20.0028 124.396 20.0028Z" fill="#BCDEB7"></path>
</svg>