<svg class="absolute full" width="200" height="200" xmlns="http://www.w3.org/2000/svg" viewBox="0 0 200 200" fill="none">
  <path d="M133.82 132.11C142.666 140.086 152.132 147.346 162.13 153.82C169.08 158.24 176.6 162.2 184.79 163.15C185.68 163.25 186.92 164.03 187.67 163.55C189.04 162.67 190.2 160.94 189.4 159.18C188.6 157.42 185.65 155.4 184.94 154.89C175.141 148.123 165.994 140.457 157.62 131.99L156.99 131.32C151.692 125.732 146.909 119.678 142.7 113.23C129.51 92.9699 129.7 76.6399 121.53 66.6499C112.444 55.5018 99.6789 47.96 85.5301 45.3799C81.2501 44.6499 76.5301 44.8099 72.9701 47.2699C68.0701 50.6399 66.6401 57.4599 67.7701 63.2699C68.2094 65.4968 68.8797 67.6719 69.7701 69.7599C70.1068 70.7854 70.574 71.7635 71.1601 72.6699C72.0089 73.5886 72.914 74.4536 73.8702 75.2599L93.1801 93.7499L102.84 102.99L107.67 107.61C109.23 109.11 110.74 110.76 112.4 112.14C119.45 118.91 126.51 125.66 133.82 132.11Z" fill="#79BE70"></path>
  <path d="M77.3496 118.38C78.7163 120.167 80.1597 121.897 81.6796 123.57C87.4097 129.84 95.5096 137.98 116.23 143.32C118.3 143.86 130.16 146.23 131.03 146.12C131.557 146.05 132.092 146.05 132.62 146.12C134.82 146.4 137.04 146.58 139.26 146.66C140.469 146.783 141.691 146.612 142.82 146.16C143.374 145.916 143.833 145.495 144.124 144.964C144.415 144.432 144.523 143.819 144.43 143.22C144.226 142.622 143.883 142.08 143.43 141.64C134.76 132.15 125.13 123.59 116.25 114.3L114.64 112.61C109.04 106.61 99.5496 87.4999 94.4396 81.0799C86.1896 70.7199 78.4396 63.9199 69.4396 59.5799C60.7596 55.3799 31.6696 45.4999 13.6896 59.8599C12.2241 60.9349 11.0909 62.4008 10.4196 64.0899C10.0272 65.3446 9.9415 66.6751 10.1696 67.9699C10.8496 72.4999 14.1696 76.2999 18.0196 78.7399C21.8696 81.1799 26.3596 82.4899 30.7396 83.8699C43.7996 87.9999 57.0896 93.3499 66.3196 103.48C70.4296 108.09 73.5996 113.46 77.3496 118.38Z" fill="#9BCE94"></path>
  <path d="M182.7 159.12C167.799 154.426 153.816 147.207 141.36 137.78C136.77 134.3 132.36 130.45 129.36 125.51C124.66 117.69 123.7 107.26 116.45 101.73C115.538 100.932 114.396 100.446 113.19 100.34C110.27 100.29 108.58 103.76 108.53 106.68C108.48 109.6 109.18 114.59 107.19 115.41C105.2 116.23 102.52 107.41 101.5 102.6C100.48 97.7899 100.1 92.8199 98.3995 88.2199C96.6995 83.6199 93.9995 80.2199 89.8795 75.7499C88.9795 74.7499 85.7795 75.8599 84.7495 78.2699C82.4195 83.6699 85.8095 90.4599 88.3895 95.6099C90.0095 98.8599 90.6095 101.73 88.5095 102.95C86.4095 104.17 79.9195 95.3299 75.5095 91.2599C68.0947 84.4301 59.4977 79.0083 50.1395 75.2599C43.7495 72.6999 36.5296 70.9599 30.0596 73.2599C50.2496 82.5899 69.7795 93.6799 86.7195 108.1C99.4495 118.93 110.65 131.58 124.18 141.39C132.57 147.48 140.91 151.46 150.18 156.14C157.914 159.866 166.145 162.457 174.62 163.83C177.99 164.42 190 165.31 187.91 162.09C186.78 160.34 184.57 159.71 182.7 159.12Z" fill="#EBB4BB"></path>
</svg>