<svg class="absolute full" width="200" height="200" xmlns="http://www.w3.org/2000/svg" viewBox="0 0 200 200" fill="none">
  <path d="M167.28 5.36001C175.28 7.43001 180.47 14.7101 181.69 24.8001C182.62 32.4801 176.91 46.2201 173.22 53.0301C170.956 57.5307 168.071 61.6912 164.65 65.39C160.511 69.3934 155.675 72.6062 150.38 74.87C133.32 82.71 114.06 84.5401 96.7004 91.6701C79.0604 98.9201 61.3404 110.6 55.7904 129.77C52.9504 139.58 52.6904 149.93 52.4604 160.14C45.2204 145.77 25.2304 142.75 15.5904 129.86C6.48039 117.68 9.88039 97.6001 21.3404 88.1701C22.5321 87.2239 23.7738 86.3426 25.0604 85.5301C32.1804 80.8501 33.6604 79.8301 35.0604 76.5301C36.5904 73.0101 36.9304 69.1 37.7104 65.35C40.2404 53.26 47.2904 41.82 57.9604 35.6C68.6304 29.38 82.9604 29.16 92.9604 36.44C95.4304 38.25 97.6604 40.44 100.47 41.7C102.314 42.4533 104.314 42.7468 106.296 42.5552C108.279 42.3636 110.185 41.6925 111.85 40.6C114.52 38.86 119.61 30.89 120.46 29.49C131.06 12.18 145.66 -0.259985 167.28 5.36001Z" fill="#BCDEB7"></path>
  <path d="M181.67 23.74C181.67 23.81 184.37 20.29 184.67 20.94C187.08 26.4662 188.735 32.292 189.59 38.2601C189.85 40.1801 190.03 42.1001 190.1 44.0301C190.23 45.387 190.23 46.7531 190.1 48.11C190.01 48.63 189.75 49.11 189.61 49.58C189.42 50.27 189.39 51.01 189.27 51.72C189.03 53.1313 188.72 54.5298 188.34 55.9101C186.81 61.4462 184.208 66.6277 180.68 71.1601C177.579 75.1795 173.782 78.6104 169.47 81.2901C171.7 104.73 162.81 128.29 148.47 146.98C139.77 158.27 128.47 166.16 117.69 175.17C106.69 184.39 113.23 185.68 98.6899 190.83C85.9899 195.31 53.0399 197.11 39.6099 196.19C29.0799 195.46 17.9499 194.42 9.41992 188.19C8.6034 187.692 7.91768 187.007 7.41992 186.19C6.48992 184.33 7.50989 181.98 9.13989 180.69C10.8749 179.535 12.8068 178.708 14.8399 178.25C31.3299 173.03 55.2599 148.58 43.8399 130.32C37.8399 120.81 32.3099 112.83 34.8399 101.01C36.7799 91.8701 43.0599 82.83 52.0199 79.45C66.0199 74.14 86.6699 79.45 86.6699 79.45C86.6699 79.45 94.5599 63.4001 111.73 59.0101C128.9 54.6201 163.02 70.31 181.67 23.74Z" fill="#9BCE94"></path>
  <path d="M130.14 72.1999C120.14 68.4799 136.14 84.2799 134.96 108.43C134.46 118.24 130.82 136.53 123.1 150.69C113.44 168.41 99.1005 181 60.2305 189.48C64.8705 191.97 78.0804 194.13 91.4404 192.34C106.81 190.34 123.1 179.34 135.14 169.6C139.472 166.015 143.487 162.064 147.14 157.79C150.834 153.579 154.219 149.107 157.27 144.41C160.298 139.736 162.972 134.842 165.27 129.77C171.86 115.2 175.38 98.5399 171.14 83.1199C180.51 76.5599 188.02 67.1199 191.5 56.2499C194.98 45.3799 194.18 32.9799 188.58 23.0099C187.49 21.0099 185.39 18.9499 183.39 19.9399C181.76 20.7399 181.62 22.94 181.72 24.8C182.21 33.88 182.72 43.0799 180.82 51.9799C178.92 60.8799 174.46 69.6 166.9 74.65C166.25 75.09 164.32 76.0399 163.9 76.7099C163.43 77.7364 163.314 78.8903 163.57 79.9899C166.85 109.11 155.38 138.99 132.36 157.14L136.16 150.03L138.07 146.48C139.209 144.283 140.227 142.027 141.12 139.72C146.45 126.52 149.68 111.62 147.57 97.3799C145.98 86.7399 140.72 76.1599 130.14 72.1999Z" fill="#EBB4BB"></path>
</svg>