<svg class="absolute full" width="200" height="200" xmlns="http://www.w3.org/2000/svg" viewBox="0 0 200 200" fill="none">
  <path d="M193 126.791C193 126.791 175.431 109.361 179.439 66.7447C183.448 24.1285 154.654 1.83547 126.243 7.08189C97.8324 12.3283 96.8738 40.9657 88.2634 51.0925C82.25 58.1517 59.3122 36.4166 37.5073 41.3493C26.5264 43.8243 8.85246 55.1364 6.41226 72.3049C3.79777 90.7458 14.186 104.097 21.5763 110.232C33.8993 120.481 51.2073 117.989 51.2073 117.989C51.2073 117.989 33.1498 138.173 46.6232 162.749C60.4277 187.848 110.155 201.6 152.667 177.582C168.633 168.57 179.701 151.82 193 126.791Z" fill="#9BCE94"></path>
  <path d="M151.272 118.163L150.348 117.762C137.169 111.898 126.009 102.284 118.259 90.1183C115.837 86.4231 113.484 82.484 109.771 80.0438C109.148 79.5745 108.417 79.2689 107.645 79.1548C106.725 79.1496 105.833 79.4707 105.128 80.0611C104.422 80.6515 103.949 81.473 103.793 82.3793C103.54 84.1781 103.87 86.0106 104.734 87.6083C107.377 93.9217 110.898 99.8306 115.192 105.16C118.747 109.165 122.78 112.718 127.201 115.74C131.175 118.529 135.149 121.736 134.818 127.174C134.522 131.828 130.495 135.401 126.312 137.493C117.681 141.539 107.87 142.295 98.7204 139.619C89.6186 136.919 81.2663 132.146 74.3185 125.675C64.9997 117.351 57.5963 107.105 52.6182 95.6435C51.0321 91.9832 49.6203 88.0789 46.7966 85.1855C46.2547 84.516 45.5377 84.01 44.7253 83.7238C43.9129 83.4376 43.037 83.3825 42.1951 83.5646C40.0163 84.3838 39.5632 88.0092 39.9118 90.2925C42.022 101.52 46.3089 112.225 52.531 121.806C54.6699 124.932 56.9983 127.924 59.503 130.765C61.9827 133.616 64.6187 136.328 67.3988 138.887C73.7318 144.623 81.0634 149.148 89.0294 152.239C95.3737 155.047 102.193 156.626 109.126 156.892C116.853 156.835 124.509 155.4 131.733 152.657C142.94 148.7 145.415 140.683 154.862 137.894C164.309 135.105 174.802 140.996 177.94 136.064C178.327 135.088 178.484 134.037 178.4 132.991C178.315 131.945 177.991 130.933 177.452 130.033C175.797 127.806 173.524 126.114 170.915 125.17C164.553 122.259 157.721 120.847 151.272 118.163Z" fill="#BCDEB7"></path>
</svg>