<svg class="absolute full" width="200" height="200" xmlns="http://www.w3.org/2000/svg" viewBox="0 0 200 200" fill="none">
  <path d="M173.049 165.626C173.944 169.049 174.6 172.53 175.012 176.044C175.306 178.009 175.246 180.011 174.835 181.956C173.487 187.147 167.823 190.398 162.466 190.233C157.11 190.067 152.203 187.076 148.36 183.339C144.517 179.603 141.513 175.062 138.132 170.971C128.897 159.619 116.848 150.869 103.971 143.857C94.8187 138.879 58.8961 126.31 56.8387 125.671C54.7812 125.033 52.3927 124.288 50.2052 123.496C42.8975 120.934 35.9781 117.377 29.6425 112.925C24.581 109.362 20.1626 104.963 16.5765 99.9179C13.6293 95.8076 11.5714 91.1281 10.5341 86.1779C9.65226 81.8819 9.84318 77.4347 11.0899 73.2301C12.3535 69.1769 14.6665 65.53 17.7944 62.6591C19.6773 60.943 21.7906 59.4982 24.0731 58.3668C38.1087 51.343 51.6123 67.8264 67.6462 69.1744C77.6142 69.9903 89.6987 63.3803 102.505 58.958C110.273 56.2738 118.408 53.8498 126.295 55.4816C129.763 56.2243 133.004 57.7832 135.75 60.0288C138.495 62.2743 140.665 65.142 142.081 68.3939C145.061 74.72 147.225 80.9751 147.225 80.9751C150.986 76.7142 155.755 73.4623 161.095 71.5156C166.546 69.6828 174.539 69.5409 180.818 74.4717C186.423 78.8822 189.521 87.6559 187.25 95.8384C183.703 108.644 172.434 122.443 168.248 129.609C166.356 132.849 166.688 136.491 167.066 140.085C167.329 142.541 167.724 144.98 168.248 147.393C169.313 152.276 170.767 157.065 172.079 161.89C172.434 163.19 172.754 164.444 173.049 165.626Z" fill="#79BE70"></path>
  <path d="M156.471 137.555C156.471 137.555 100.34 79.3906 127.584 67.9682C154.827 56.5458 156.471 137.555 156.471 137.555Z" fill="#BCDEB7"></path>
  <path d="M138.735 139.021C144.564 144.626 150.275 150.349 155.667 156.38C156.374 157.053 156.906 157.889 157.216 158.815C157.353 159.284 157.323 159.785 157.131 160.234C156.939 160.682 156.597 161.05 156.164 161.275C155.699 161.365 155.22 161.346 154.764 161.219C154.309 161.092 153.889 160.86 153.539 160.542C145.569 155.185 138.876 148.469 130.517 143.621C121.587 138.642 112.252 134.43 102.611 131.028C100.64 130.295 98.6694 129.578 96.6987 128.876C82.9469 123.992 69.3843 119.204 56.7676 111.742C49.673 107.568 43.4415 101.1 46.5513 92.1965C47.1629 90.3986 48.1482 88.7506 49.4423 87.3607C50.7364 85.9708 52.31 84.8704 54.0598 84.1322C57.1285 82.9952 60.4203 82.5903 63.673 82.9498C81.1495 84.3214 94.0145 97.1392 106.111 108.455L126.709 127.67C130.729 131.442 134.762 135.202 138.735 139.021Z" fill="#BCDEB7"></path>
</svg>